# Blender 4.1.1
# www.blender.org
mtllib Booth_01_OG.004.mtl
o Booth_01_OG.004
v -3.989910 0.777435 4.502846
v -5.821991 1.313893 4.502846
v -3.989910 1.313893 4.502846
v -5.821990 0.777434 4.502846
v -5.821990 0.567956 4.502846
v -3.989910 0.567957 4.502846
v -5.821990 0.017150 4.502846
v -3.989910 0.017151 4.502846
v -5.821990 1.313893 4.331911
v -5.821990 0.777434 4.331911
v -5.821990 0.567956 4.331911
v -5.821990 0.017150 4.331911
v -5.821990 0.567956 3.694968
v -5.821990 0.017150 3.694969
v -3.989910 0.777435 4.331911
v -3.989910 1.313893 4.331911
v -3.989910 0.567956 4.331912
v -3.989910 0.017151 4.331912
v -3.989910 0.017150 3.694969
v -3.989910 0.567956 3.694969
v -3.971654 0.567956 4.331912
v -3.971654 0.567956 3.694969
v -3.971654 0.567956 3.675083
v -3.989910 0.567956 3.675083
v -5.821990 0.567956 3.675083
v -5.840247 0.567956 3.694968
v -5.840247 0.567956 3.675083
v -5.840247 0.567956 4.331911
v -3.971654 0.777434 3.675083
v -3.989910 0.777434 3.675083
v -5.821990 0.777434 3.675083
v -5.840247 0.777434 3.675083
v -3.971654 0.777435 4.331911
v -3.971654 0.777434 3.694969
v -5.840247 0.777434 3.694968
v -5.840247 0.777434 4.331911
v -3.989910 0.777434 3.694969
v -5.821990 0.777434 3.694968
vn -0.0000 -0.0000 1.0000
vn -1.0000 -0.0000 -0.0000
vn -0.0000 -0.0000 -1.0000
vn 1.0000 -0.0000 -0.0000
vn -0.0000 1.0000 -0.0000
vn -0.0000 -1.0000 -0.0000
vt 0.648890 0.215443
vt 0.648890 0.000000
vt 0.864333 0.000000
vt 0.864333 0.215443
vt 0.864333 0.299569
vt 0.648890 0.299569
vt 0.864333 0.520774
vt 0.648890 0.520774
vt 0.000000 0.215443
vt 0.000000 0.000000
vt 0.068648 0.000000
vt 0.068648 0.215443
vt 0.068648 0.299569
vt 0.000000 0.299569
vt 0.068648 0.520774
vt 0.000000 0.520774
vt 0.324445 0.299569
vt 0.324445 0.520774
vt 0.873252 0.957421
vt 0.657809 0.741979
vt 0.873252 0.741979
vt 0.657809 0.957421
vt 0.580242 0.215443
vt 0.580242 0.000000
vt 0.580242 0.299569
vt 0.580242 0.520774
vt 0.284090 1.000000
vt 0.215443 0.784557
vt 0.284090 0.784557
vt 0.215443 1.000000
vt 0.000000 0.589422
vt 0.215443 0.845219
vt 0.000000 0.845219
vt 0.215443 0.589422
vt 0.215443 0.520774
vt 0.000000 0.520774
vt 0.657809 0.520774
vt 0.873252 0.741979
vt 0.873252 0.520774
vt 0.218313 0.520774
vt 0.215443 0.776571
vt 0.215443 0.520774
vt 0.218313 0.776571
vt 0.218313 0.784557
vt 0.433756 0.784557
vt 0.433756 0.776571
vt 0.436626 0.776571
vt 0.436626 0.784557
vt 0.436626 0.520774
vt 0.433756 0.520774
vt 0.948459 0.266654
vt 0.864333 0.263783
vt 0.948459 0.263783
vt 0.864333 0.266654
vt 0.864333 0.482096
vt 0.948459 0.482096
vt 0.948459 0.484967
vt 0.864333 0.484967
vt 0.286961 0.784557
vt 0.284090 0.868684
vt 0.284090 0.784557
vt 0.286961 0.868684
vt 0.864333 -0.000000
vt 0.948459 0.000000
vt 0.948459 0.255797
vt 0.864333 0.255797
vt 0.948459 0.263783
vt 0.864333 0.263783
vt 0.957379 0.784557
vt 0.873252 0.784557
vt 0.873252 0.528760
vt 0.957379 0.528760
vt 0.873252 0.520774
vt 0.957379 0.520774
vt 0.439496 0.520774
vt 0.436626 0.528760
vt 0.436626 0.520774
vt 0.439496 0.528760
vt 0.436626 0.784557
vt 0.439496 0.784557
vt 0.654939 0.784557
vt 0.654939 0.528760
vt 0.654939 0.520774
vt 0.657809 0.520774
vt 0.657809 0.528760
vt 0.657809 0.784557
vt 0.289831 0.784557
vt 0.289831 0.868684
s 1
usemtl Sitting
f 1/1/1 3/2/1 2/3/1
f 1/1/1 2/3/1 4/4/1
f 1/1/1 4/4/1 5/5/1
f 1/1/1 5/5/1 6/6/1
f 6/6/1 5/5/1 7/7/1
f 6/6/1 7/7/1 8/8/1
f 4/9/2 2/10/2 9/11/2
f 4/9/2 9/11/2 10/12/2
f 4/9/2 10/12/2 11/13/2
f 4/9/2 11/13/2 5/14/2
f 5/14/2 11/13/2 12/15/2
f 5/14/2 12/15/2 7/16/2
f 12/15/2 11/13/2 13/17/2
f 12/15/2 13/17/2 14/18/2
f 10/19/3 16/20/3 15/21/3
f 10/19/3 9/22/3 16/20/3
f 15/23/4 16/24/4 3/2/4
f 15/23/4 3/2/4 1/1/4
f 15/23/4 1/1/4 6/6/4
f 15/23/4 6/6/4 17/25/4
f 17/25/4 6/6/4 8/8/4
f 17/25/4 8/8/4 18/26/4
f 17/25/4 18/26/4 19/18/4
f 17/25/4 19/18/4 20/17/4
f 9/27/5 3/28/5 16/29/5
f 9/27/5 2/30/5 3/28/5
f 18/31/6 14/32/6 19/33/6
f 18/31/6 12/34/6 14/32/6
f 7/35/6 12/34/6 18/31/6
f 7/35/6 18/31/6 8/36/6
f 13/37/3 19/38/3 14/20/3
f 13/37/3 20/39/3 19/38/3
usemtl Sitting
f 17/40/6 22/41/6 21/42/6
f 17/40/6 20/43/6 22/41/6
f 20/43/6 23/28/6 22/41/6
f 20/43/6 24/44/6 23/28/6
f 20/43/6 25/45/6 24/44/6
f 20/43/6 13/46/6 25/45/6
f 25/45/6 13/46/6 26/47/6
f 25/45/6 26/47/6 27/48/6
f 13/46/6 28/49/6 26/47/6
f 13/46/6 11/50/6 28/49/6
f 24/51/3 29/52/3 23/53/3
f 24/51/3 30/54/3 29/52/3
f 31/55/3 30/54/3 24/51/3
f 31/55/3 24/51/3 25/56/3
f 31/55/3 25/56/3 27/57/3
f 31/55/3 27/57/3 32/58/3
f 15/59/1 21/60/1 33/61/1
f 15/59/1 17/62/1 21/60/1
f 33/63/4 21/64/4 22/65/4
f 33/63/4 22/65/4 34/66/4
f 34/66/4 22/65/4 23/67/4
f 34/66/4 23/67/4 29/68/4
f 28/69/2 36/70/2 35/71/2
f 28/69/2 35/71/2 26/72/2
f 26/72/2 35/71/2 32/73/2
f 26/72/2 32/73/2 27/74/2
f 30/75/5 34/76/5 29/77/5
f 30/75/5 37/78/5 34/76/5
f 37/78/5 33/79/5 34/76/5
f 37/78/5 15/80/5 33/79/5
f 10/81/5 15/80/5 37/78/5
f 38/82/5 37/78/5 30/75/5
f 10/81/5 37/78/5 38/82/5
f 38/82/5 30/75/5 31/83/5
f 38/82/5 31/83/5 32/84/5
f 38/82/5 32/84/5 35/85/5
f 10/81/5 38/82/5 35/85/5
f 10/81/5 35/85/5 36/86/5
f 11/62/1 36/87/1 28/88/1
f 11/62/1 10/59/1 36/87/1
