# Blender 4.1.1
# www.blender.org
mtllib Booth_Backseat.mtl
o Booth_Backseat
v -5.814366 0.656576 -3.818086
v -3.997535 0.656576 -3.818086
v -5.814366 1.348414 -3.818086
v -5.779092 1.383688 -3.818086
v -5.809641 1.366051 -3.818086
v -5.796730 1.378962 -3.818086
v -4.032809 1.383688 -3.818086
v -3.997535 1.348414 -3.818086
v -4.015172 1.378962 -3.818086
v -4.002260 1.366051 -3.818086
v -5.779092 0.656576 -3.673580
v -5.814366 0.656576 -3.708854
v -5.796730 0.656576 -3.678306
v -5.809641 0.656576 -3.691217
v -3.997535 0.656576 -3.708854
v -4.032809 0.656576 -3.673580
v -4.002260 0.656576 -3.691217
v -4.015172 0.656576 -3.678306
v -5.814366 1.295641 -3.708854
v -5.779092 1.300285 -3.673580
v -5.809641 1.297963 -3.691217
v -5.796730 1.299663 -3.678306
v -5.814366 1.348414 -3.761626
v -5.779092 1.383688 -3.756983
v -5.809641 1.366051 -3.759305
v -5.796730 1.378962 -3.757605
v -5.814366 1.323728 -3.716380
v -5.779092 1.341987 -3.684754
v -5.809641 1.332857 -3.700567
v -5.796730 1.339541 -3.688991
v -5.814366 1.340889 -3.733541
v -5.779092 1.372514 -3.715281
v -5.809641 1.356701 -3.724411
v -5.796730 1.368277 -3.717727
v -3.997535 1.348414 -3.761626
v -4.032809 1.383688 -3.756983
v -4.002260 1.366051 -3.759305
v -4.015172 1.378962 -3.757605
v -3.997535 1.295641 -3.708854
v -4.032809 1.300285 -3.673580
v -4.002260 1.297963 -3.691217
v -4.015172 1.299663 -3.678306
v -3.997535 1.340889 -3.733541
v -4.032809 1.372514 -3.715281
v -4.002260 1.356701 -3.724411
v -4.015172 1.368277 -3.717727
v -3.997535 1.323728 -3.716380
v -4.032809 1.341987 -3.684754
v -4.002260 1.332857 -3.700567
v -4.015172 1.339541 -3.688991
v -5.429836 1.383688 -3.818086
v -5.080579 1.383688 -3.818086
v -4.731322 1.383688 -3.818086
v -4.382065 1.383688 -3.818086
v -4.409803 0.656576 -3.673580
v -4.354328 0.656576 -3.673580
v -4.382065 0.656576 -3.703434
v -4.759059 0.656576 -3.673580
v -4.703585 0.656576 -3.673580
v -4.731322 0.656576 -3.703434
v -5.108316 0.656576 -3.673580
v -5.052842 0.656576 -3.673580
v -5.080579 0.656576 -3.703434
v -5.457573 0.656576 -3.673580
v -5.402098 0.656576 -3.673580
v -5.429836 0.656576 -3.703434
v -4.354328 1.300285 -3.673580
v -4.409803 1.300285 -3.673580
v -4.382065 1.300285 -3.703434
v -4.703585 1.300285 -3.673580
v -4.759059 1.300285 -3.673580
v -4.731322 1.300285 -3.703434
v -5.052842 1.300285 -3.673580
v -5.108316 1.300285 -3.673580
v -5.080579 1.300285 -3.703434
v -5.402098 1.300285 -3.673580
v -5.457573 1.300285 -3.673580
v -5.429836 1.300285 -3.703434
v -5.457573 1.383688 -3.756983
v -5.402098 1.383688 -3.756983
v -5.429836 1.383688 -3.756983
v -5.108316 1.383688 -3.756983
v -5.052842 1.383688 -3.756983
v -5.080579 1.383688 -3.756983
v -4.759059 1.383688 -3.756983
v -4.703585 1.383688 -3.756983
v -4.731322 1.383688 -3.756983
v -4.409803 1.383688 -3.756983
v -4.354328 1.383688 -3.756983
v -4.382065 1.383688 -3.756983
v -5.402098 1.372514 -3.715281
v -5.457573 1.372514 -3.715281
v -5.429836 1.372514 -3.745136
v -5.052842 1.372514 -3.715281
v -5.108316 1.372514 -3.715281
v -5.080579 1.372514 -3.745136
v -4.703585 1.372514 -3.715281
v -4.759059 1.372514 -3.715281
v -4.731322 1.372514 -3.745136
v -4.354328 1.372514 -3.715281
v -4.409803 1.372514 -3.715281
v -4.382065 1.372514 -3.745136
v -5.402098 1.341987 -3.684754
v -5.457573 1.341987 -3.684754
v -5.429836 1.341987 -3.714608
v -5.052842 1.341987 -3.684754
v -5.108316 1.341987 -3.684754
v -5.080579 1.341987 -3.714608
v -4.703585 1.341987 -3.684754
v -4.759059 1.341987 -3.684754
v -4.731322 1.341987 -3.714608
v -4.354328 1.341987 -3.684754
v -4.409803 1.341987 -3.684754
v -4.382065 1.341987 -3.714608
v -5.469997 1.383688 -3.818086
v -5.498038 0.656576 -3.673580
v -5.498038 1.300285 -3.673580
v -5.498038 1.341987 -3.684754
v -5.498038 1.383688 -3.756983
v -5.498038 1.372514 -3.715281
v -5.386354 1.383688 -3.818086
v -5.362560 0.656576 -3.673580
v -5.362560 1.300285 -3.673580
v -5.362560 1.341987 -3.684754
v -5.362560 1.383688 -3.756983
v -5.362560 1.372514 -3.715281
v -5.130779 1.383688 -3.818086
v -5.153354 1.383688 -3.756983
v -5.153354 1.372514 -3.715281
v -5.153355 0.656576 -3.673580
v -5.153355 1.300285 -3.673580
v -5.153354 1.341987 -3.684754
v -5.024551 1.383688 -3.818086
v -5.003033 0.656576 -3.673580
v -5.003033 1.300285 -3.673580
v -5.003033 1.341987 -3.684754
v -5.003033 1.383688 -3.756983
v -5.003033 1.372514 -3.715281
v -4.779856 1.383688 -3.818086
v -4.802734 1.383688 -3.756983
v -4.802734 1.372514 -3.715281
v -4.802734 0.656576 -3.673580
v -4.802734 1.300285 -3.673580
v -4.802734 1.341987 -3.684754
v -4.672449 1.383688 -3.818086
v -4.652844 0.656576 -3.673580
v -4.652844 1.300285 -3.673580
v -4.652844 1.341987 -3.684754
v -4.652844 1.383688 -3.756983
v -4.652844 1.372514 -3.715281
v -4.429945 1.383688 -3.818086
v -4.453171 1.383688 -3.756983
v -4.453171 1.372514 -3.715281
v -4.453171 0.656576 -3.673580
v -4.453171 1.300285 -3.673580
v -4.453171 1.341987 -3.684754
v -4.342169 1.383688 -3.818086
v -4.314105 0.656576 -3.673580
v -4.314105 1.300285 -3.673580
v -4.314105 1.341987 -3.684754
v -4.314105 1.383688 -3.756983
v -4.314105 1.372514 -3.715281
v -3.997535 1.248768 -3.708854
v -4.002260 1.249928 -3.691217
v -4.015172 1.250778 -3.678306
v -4.032809 1.251090 -3.673580
v -5.814366 1.248768 -3.708854
v -5.809641 1.249928 -3.691217
v -5.796730 1.250778 -3.678306
v -5.779092 1.251090 -3.673580
v -4.409803 1.251090 -3.673580
v -4.382065 1.251090 -3.703434
v -4.354328 1.251090 -3.673580
v -4.759059 1.251090 -3.673580
v -4.731322 1.251090 -3.703434
v -4.703585 1.251090 -3.673580
v -5.108316 1.251090 -3.673580
v -5.080579 1.251090 -3.703434
v -5.052842 1.251090 -3.673580
v -5.457573 1.251090 -3.673580
v -5.429836 1.251090 -3.703434
v -5.402098 1.251090 -3.673580
v -5.498038 1.251090 -3.673580
v -5.362560 1.251090 -3.673580
v -5.153355 1.251090 -3.673580
v -5.003033 1.251090 -3.673580
v -4.802734 1.251090 -3.673580
v -4.652844 1.251090 -3.673580
v -4.453171 1.251090 -3.673580
v -4.314105 1.251090 -3.673580
v -5.814366 0.419811 -3.818086
v -3.997535 0.419811 -3.818086
v -5.779092 0.419811 -3.726486
v -5.814366 0.419811 -3.761760
v -5.796730 0.419811 -3.731211
v -5.809641 0.419811 -3.744123
v -3.997535 0.419811 -3.761760
v -4.032809 0.419811 -3.726486
v -4.002260 0.419811 -3.744123
v -4.015172 0.419811 -3.731211
v -4.409803 0.419811 -3.726486
v -4.354328 0.419811 -3.726486
v -4.382065 0.419811 -3.756340
v -4.759059 0.419811 -3.726486
v -4.703585 0.419811 -3.726486
v -4.731322 0.419811 -3.756340
v -5.108316 0.419811 -3.726486
v -5.052842 0.419811 -3.726486
v -5.080579 0.419811 -3.756340
v -5.457573 0.419811 -3.726486
v -5.402098 0.419811 -3.726486
v -5.429836 0.419811 -3.756340
v -5.498038 0.419811 -3.726486
v -5.362560 0.419811 -3.726486
v -5.153355 0.419811 -3.726486
v -5.003033 0.419811 -3.726486
v -4.802734 0.419811 -3.726486
v -4.652844 0.419811 -3.726486
v -4.453171 0.419811 -3.726486
v -4.314105 0.419811 -3.726486
vn 1.0000 -0.0000 -0.0000
vn 0.9914 0.1305 -0.0000
vn 0.9901 0.1388 0.0183
vn 0.9892 0.1272 0.0734
vn 0.9892 0.0734 0.1272
vn 0.9901 0.0183 0.1388
vn 0.9914 -0.0000 0.1305
vn 0.9901 -0.0166 0.1394
vn -0.9901 -0.0166 0.1394
vn -0.9914 -0.0000 0.1305
vn -0.9901 0.0183 0.1388
vn -0.9892 0.0734 0.1272
vn -0.9892 0.1272 0.0734
vn -0.9901 0.1388 0.0183
vn -0.9914 0.1305 -0.0000
vn -1.0000 -0.0000 -0.0000
vn 0.9665 0.2545 0.0335
vn 0.9681 0.2170 0.1253
vn 0.7193 0.6017 0.3474
vn 0.7101 0.6980 0.0919
vn 0.4936 0.8622 0.1135
vn 0.2673 0.8345 0.4818
vn 0.1302 0.9830 0.1294
vn 0.1320 0.8584 0.4956
vn -0.8544 0.4500 0.2598
vn -0.8584 0.5086 0.0670
vn -0.7193 0.6017 0.3474
vn -0.7101 0.6980 0.0919
vn -0.2609 0.9571 0.1260
vn -0.2673 0.8345 0.4818
vn -0.1320 0.8584 0.4956
vn -0.1302 0.9830 0.1294
vn 0.9681 0.1253 0.2170
vn 0.7193 0.3474 0.6017
vn 0.4931 0.4350 0.7534
vn 0.1320 0.4956 0.8584
vn -0.9681 0.1253 0.2170
vn -0.7193 0.3474 0.6017
vn -0.4931 0.4350 0.7534
vn -0.1320 0.4956 0.8584
vn 0.9665 0.0335 0.2545
vn 0.7101 0.0919 0.6980
vn 0.4936 0.1135 0.8622
vn 0.1302 0.1294 0.9830
vn -0.9665 0.0335 0.2546
vn -0.7101 0.0919 0.6980
vn -0.4936 0.1135 0.8622
vn -0.1302 0.1294 0.9830
vn 0.9659 -0.0000 0.2588
vn 0.7071 -0.0000 0.7071
vn 0.5000 -0.0000 0.8660
vn 0.1305 -0.0000 0.9914
vn -0.9656 -0.0268 0.2587
vn -0.9659 -0.0000 0.2588
vn -0.7071 -0.0000 0.7071
vn -0.7047 -0.0819 0.7047
vn -0.4905 -0.0949 0.8663
vn -0.5000 -0.0000 0.8660
vn -0.1287 -0.1079 0.9858
vn -0.1305 -0.0000 0.9914
vn -0.1305 0.9914 -0.0000
vn -0.2588 0.9659 -0.0000
vn -0.7071 0.7071 -0.0000
vn -0.9659 0.2588 -0.0000
vn 0.9659 0.2588 -0.0000
vn 0.7071 0.7071 -0.0000
vn 0.5000 0.8660 -0.0000
vn 0.1305 0.9914 -0.0000
vn -0.0000 -0.0000 1.0000
vn -0.0000 0.1305 0.9914
vn -0.0000 0.7071 0.7071
vn -0.0000 0.5000 0.8660
vn -0.0000 1.0000 -0.0000
vn -0.0000 0.9914 0.1305
vn 0.0517 0.9854 0.1620
vn -0.0000 0.9659 0.2588
vn 0.0681 0.9514 0.3002
vn -0.0000 0.9809 0.1943
vn -0.0517 0.9854 0.1620
vn 0.7326 -0.0000 0.6807
vn 0.7307 -0.0713 0.6789
vn 0.7303 -0.0791 0.6785
vn -0.7326 -0.0000 0.6807
vn -0.7303 -0.0791 0.6785
vn -0.7307 -0.0713 0.6789
vn -0.7300 0.0843 0.6782
vn -0.6923 0.3271 0.6432
vn -0.6648 0.4201 0.6177
vn -0.7293 0.0952 0.6776
vn 0.7293 0.0952 0.6776
vn 0.6648 0.4201 0.6177
vn 0.6923 0.3271 0.6432
vn 0.7300 0.0843 0.6782
vn -0.6056 0.5627 0.5627
vn 0.6056 0.5627 0.5627
vn -0.0681 0.9514 0.3002
vn -0.0000 0.9229 0.3851
vn 0.1287 -0.1079 0.9858
vn -0.0000 -0.1097 0.9940
vn 0.4905 -0.0949 0.8663
vn 0.7047 -0.0820 0.7047
vn 0.9656 -0.0268 0.2587
vn -0.0000 -0.2181 0.9759
vn 0.9933 -0.0251 0.1125
vn -0.7243 -0.1504 0.6729
vn -0.5070 -0.1880 0.8412
vn -0.1298 -0.2162 0.9677
vn -0.6984 -0.1561 0.6984
vn -0.9933 -0.0251 0.1125
vn -0.9643 -0.0577 0.2584
vn 0.7243 -0.1504 0.6729
vn 0.9643 -0.0577 0.2584
vn 0.5070 -0.1880 0.8412
vn 0.6984 -0.1561 0.6984
vn 0.1298 -0.2162 0.9677
vt 0.451716 0.500000
vt 0.616594 0.500000
vt 0.616594 0.596761
vt 0.614800 0.645642
vt 0.610710 0.675510
vt 0.604017 0.688608
vt 0.527867 0.688608
vt 0.451716 0.688608
vt 0.451716 0.061392
vt 0.527867 0.061392
vt 0.604017 0.061392
vt 0.610710 0.074490
vt 0.614800 0.104358
vt 0.616594 0.153239
vt 0.616594 0.250000
vt 0.451716 0.250000
vt 0.620797 0.600802
vt 0.618569 0.661532
vt 0.624962 0.605889
vt 0.622415 0.675293
vt 0.625000 0.745743
vt 0.625000 0.606935
vt 0.629854 0.604843
vt 0.629854 0.750000
vt 0.618569 0.088468
vt 0.620797 0.149198
vt 0.622415 0.074707
vt 0.624962 0.144111
vt 0.875000 0.606935
vt 0.875000 0.745743
vt 0.870146 0.750000
vt 0.870146 0.604843
vt 0.612886 0.703031
vt 0.622124 0.678980
vt 0.615275 0.728994
vt 0.615353 0.750000
vt 0.624708 0.750000
vt 0.625000 0.754854
vt 0.615062 0.754854
vt 0.612886 0.046969
vt 0.615275 0.021006
vt 0.622124 0.071020
vt 0.624708 1.000000
vt 0.615353 1.000000
vt 0.615062 0.995146
vt 0.625000 0.995146
vt 0.604570 0.719304
vt 0.614770 0.731123
vt 0.605267 0.749720
vt 0.605267 0.750000
vt 0.614770 0.750000
vt 0.605124 0.754854
vt 0.604570 0.030696
vt 0.605267 0.000280
vt 0.614770 0.018877
vt 0.614770 1.000000
vt 0.605267 1.000000
vt 0.605124 0.995146
vt 0.528143 0.719304
vt 0.604975 0.752427
vt 0.528346 0.752427
vt 0.528420 0.754854
vt 0.451716 0.000000
vt 0.528143 0.000000
vt 0.528143 1.000000
vt 0.451716 1.000000
vt 0.451716 0.997573
vt 0.528346 0.997573
vt 0.451716 0.995146
vt 0.528420 0.995146
vt 0.870146 0.500000
vt 0.875000 0.500000
vt 0.875000 0.603760
vt 0.625000 0.146240
vt 0.625000 0.250000
vt 0.620797 0.250000
vt 0.620797 0.500000
vt 0.627427 0.500000
vt 0.627427 0.603760
vt 0.629854 0.500000
vt 0.528420 0.793561
vt 0.605124 0.793561
vt 0.605124 0.798553
vt 0.528420 0.798553
vt 0.625000 0.956473
vt 0.615062 0.956473
vt 0.615062 0.951447
vt 0.625000 0.951447
vt 0.672422 0.544713
vt 0.668561 0.604843
vt 0.615062 0.812522
vt 0.605124 0.812522
vt 0.605124 0.807272
vt 0.615062 0.807272
vt 0.615062 0.793561
vt 0.528420 0.839113
vt 0.605124 0.839113
vt 0.605124 0.846611
vt 0.528420 0.846611
vt 0.528420 0.888359
vt 0.605124 0.888359
vt 0.605124 0.894670
vt 0.528420 0.894670
vt 0.528420 0.937830
vt 0.605124 0.937830
vt 0.605124 0.942728
vt 0.528420 0.942728
vt 0.528420 0.956472
vt 0.605124 0.956473
vt 0.831473 0.604843
vt 0.826447 0.604843
vt 0.822088 0.500000
vt 0.827614 0.500000
vt 0.605124 0.951447
vt 0.615062 0.951447
vt 0.615062 0.909043
vt 0.605124 0.909043
vt 0.605124 0.903389
vt 0.615062 0.903389
vt 0.615062 0.860797
vt 0.605124 0.860797
vt 0.605124 0.855331
vt 0.615062 0.855330
vt 0.625000 0.909043
vt 0.625000 0.903389
vt 0.625000 0.860797
vt 0.625000 0.855330
vt 0.625000 0.812522
vt 0.625000 0.807272
vt 0.625000 0.793561
vt 0.780937 0.507256
vt 0.784043 0.604843
vt 0.778389 0.604843
vt 0.774029 0.500000
vt 0.732649 0.507015
vt 0.735797 0.604843
vt 0.730330 0.604843
vt 0.725971 0.500000
vt 0.684326 0.506737
vt 0.687522 0.604843
vt 0.682272 0.604843
vt 0.677912 0.500000
vt 0.668561 0.750000
vt 0.831473 0.750000
vt 0.826447 0.750000
vt 0.784043 0.750000
vt 0.778389 0.750000
vt 0.735797 0.750000
vt 0.730330 0.750000
vt 0.730330 0.604843
vt 0.687522 0.750000
vt 0.682272 0.750000
vt 0.822088 0.604843
vt 0.822088 0.550480
vt 0.817728 0.604843
vt 0.774029 0.604843
vt 0.774029 0.550480
vt 0.769670 0.604843
vt 0.725971 0.604843
vt 0.725971 0.550480
vt 0.721611 0.604843
vt 0.677912 0.604843
vt 0.677912 0.550480
vt 0.673553 0.604843
vt 0.528420 0.807272
vt 0.451716 0.807272
vt 0.451716 0.802912
vt 0.528420 0.802912
vt 0.451716 0.798553
vt 0.528420 0.855330
vt 0.451716 0.855330
vt 0.451716 0.850971
vt 0.528420 0.850971
vt 0.451716 0.846611
vt 0.528420 0.903389
vt 0.451716 0.903389
vt 0.451716 0.899029
vt 0.528420 0.899029
vt 0.451716 0.894669
vt 0.528420 0.951447
vt 0.451716 0.951447
vt 0.451716 0.947088
vt 0.528420 0.947088
vt 0.451716 0.942728
vt 0.615062 0.942728
vt 0.615062 0.947088
vt 0.605124 0.947088
vt 0.615062 0.894670
vt 0.615062 0.899029
vt 0.605124 0.899029
vt 0.605124 0.846611
vt 0.615062 0.846611
vt 0.615062 0.850971
vt 0.605124 0.850971
vt 0.605124 0.798553
vt 0.615062 0.798553
vt 0.615062 0.802912
vt 0.605124 0.802912
vt 0.615062 0.942728
vt 0.625000 0.942728
vt 0.625000 0.947088
vt 0.615062 0.894670
vt 0.625000 0.894670
vt 0.625000 0.899029
vt 0.625000 0.846611
vt 0.625000 0.850971
vt 0.615062 0.798553
vt 0.625000 0.798553
vt 0.625000 0.802912
vt 0.817728 0.750000
vt 0.822088 0.750000
vt 0.769670 0.750000
vt 0.769670 0.604843
vt 0.774029 0.750000
vt 0.721611 0.750000
vt 0.725971 0.750000
vt 0.673553 0.750000
vt 0.677912 0.750000
vt 0.812831 0.750000
vt 0.812831 0.604843
vt 0.817728 0.604843
vt 0.816105 0.544195
vt 0.615062 0.937830
vt 0.625000 0.937830
vt 0.528420 0.909043
vt 0.763359 0.750000
vt 0.763359 0.604843
vt 0.766320 0.542382
vt 0.615062 0.888359
vt 0.625000 0.888359
vt 0.528420 0.860797
vt 0.714113 0.750000
vt 0.714113 0.604843
vt 0.721611 0.604843
vt 0.716810 0.540858
vt 0.615062 0.839113
vt 0.625000 0.839113
vt 0.528420 0.812522
vt 0.605124 0.807272
vt 0.673553 0.604843
vt 0.451716 0.754854
vt 0.451716 0.793561
vt 0.451716 0.812522
vt 0.451716 0.839113
vt 0.451716 0.860797
vt 0.451716 0.888359
vt 0.451716 0.909043
vt 0.451716 0.937830
vt 0.451716 0.956472
vt 0.604975 0.997573
vt 0.604570 1.000000
vt 0.604570 0.000000
vt 0.451716 0.752427
vt 0.451716 0.719304
s 1
f 2/1/1 8/2/2 35/3/3 43/4/4 47/5/5 39/6/6 163/7/7 15/8/8
f 12/9/9 167/10/10 19/11/11 27/12/12 31/13/13 23/14/14 3/15/15 1/16/16
f 43/4/4 35/3/3 37/17/17 45/18/18
f 45/18/19 37/17/20 38/19/21 46/20/19
f 46/21/22 38/22/21 36/23/23 44/24/24
f 23/14/14 31/13/13 33/25/25 25/26/26
f 25/26/26 33/25/25 34/27/27 26/28/28
f 26/29/29 34/30/30 32/31/31 24/32/32
f 47/5/5 43/4/4 45/18/18 49/33/33
f 49/33/34 45/18/19 46/34/19 50/35/35
f 50/36/35 46/37/22 44/38/24 48/39/36
f 31/13/13 27/12/12 29/40/37 33/25/25
f 33/25/25 29/40/38 30/41/39 34/42/27
f 34/43/30 30/44/39 28/45/40 32/46/31
f 39/6/6 47/5/5 49/33/33 41/47/41
f 41/47/42 49/33/34 50/48/35 42/49/43
f 42/50/43 50/51/35 48/39/36 40/52/44
f 27/12/12 19/11/11 21/53/45 29/40/37
f 29/40/38 21/53/46 22/54/47 30/55/39
f 30/56/39 22/57/47 20/58/48 28/45/40
f 163/7/7 39/6/6 41/47/41 164/59/49
f 164/59/50 41/47/42 42/60/43 165/61/51
f 165/61/51 42/60/43 40/52/44 166/62/52
f 167/10/10 12/9/9 14/63/53 168/64/54
f 168/65/55 14/66/56 13/67/57 169/68/58
f 169/68/58 13/67/57 11/69/59 170/70/60
f 24/32/32 4/71/61 6/72/62 26/73/29
f 26/74/28 6/75/63 5/76/63 25/26/26
f 25/26/26 5/76/64 3/15/15 23/14/14
f 35/3/3 8/2/2 10/77/65 37/17/17
f 37/17/20 10/77/66 9/78/67 38/79/21
f 38/79/21 9/78/67 7/80/68 36/23/23
f 190/81/69 159/82/70 67/83/70 173/84/69
f 120/85/71 118/86/72 104/87/72 92/88/71
f 157/89/73 161/90/74 36/23/23 7/80/68
f 156/91/72 155/92/70 68/93/70 113/94/72
f 160/95/72 159/82/70 40/52/44 48/39/36
f 188/96/69 147/97/70 70/98/70 176/99/69
f 186/100/69 135/101/70 73/102/70 179/103/69
f 184/104/69 123/105/70 76/106/70 182/107/69
f 183/108/69 117/109/70 20/58/48 170/70/60
f 119/110/74 79/111/75 51/112/73 115/113/73
f 118/86/72 117/109/70 77/114/70 104/115/72
f 132/116/72 131/117/70 74/118/70 107/119/72
f 144/120/72 143/121/70 71/122/70 110/123/72
f 129/124/71 132/116/72 107/119/72 95/125/71
f 141/126/71 144/120/72 110/123/72 98/127/71
f 153/128/71 156/91/72 113/94/72 101/129/71
f 162/130/71 160/95/72 48/39/36 44/38/24
f 127/131/73 128/132/74 82/133/75 52/134/73
f 139/135/73 140/136/74 85/137/75 53/138/73
f 151/139/73 152/140/74 88/141/75 54/142/73
f 161/90/74 162/143/76 44/24/24 36/23/23
f 119/110/74 120/144/76 92/145/77 79/111/75
f 128/132/74 129/146/76 95/147/77 82/133/75
f 140/136/74 141/148/76 98/149/77 85/150/75
f 152/140/74 153/151/76 101/152/77 88/141/75
f 79/111/75 81/153/78 51/154/73
f 81/153/78 80/155/79 51/154/73
f 82/133/75 84/156/78 52/157/73
f 84/156/78 83/158/79 52/157/73
f 85/150/75 87/159/78 53/160/73
f 87/159/78 86/161/79 53/160/73
f 88/141/75 90/162/78 54/163/73
f 90/162/78 89/164/79 54/163/73
f 171/165/80 55/166/81 57/167/82 172/168/80
f 172/168/83 57/167/84 56/169/85 173/84/83
f 174/170/80 58/171/81 60/172/82 175/173/80
f 175/173/83 60/172/84 59/174/85 176/99/83
f 177/175/80 61/176/81 63/177/82 178/178/80
f 178/178/83 63/177/84 62/179/85 179/103/83
f 180/180/80 64/181/81 66/182/82 181/183/80
f 181/183/83 66/182/84 65/184/85 182/107/83
f 76/106/86 103/185/87 105/186/88 78/187/89
f 78/187/90 105/186/91 104/115/92 77/114/93
f 73/102/86 106/188/87 108/189/88 75/190/89
f 75/190/90 108/189/91 107/119/92 74/118/93
f 70/191/86 109/192/87 111/193/88 72/194/89
f 72/194/90 111/193/91 110/123/92 71/122/93
f 67/195/86 112/196/87 114/197/88 69/198/89
f 69/198/90 114/197/91 113/94/92 68/93/93
f 103/199/87 91/200/94 93/201/94 105/186/88
f 105/186/91 93/201/95 92/88/95 104/87/92
f 106/202/87 94/203/94 96/204/94 108/189/88
f 108/189/91 96/204/95 95/125/95 107/119/92
f 109/192/87 97/205/94 99/206/94 111/193/88
f 111/193/91 99/206/95 98/127/95 110/123/92
f 112/207/87 100/208/94 102/209/94 114/197/88
f 114/197/91 102/209/95 101/129/95 113/94/92
f 91/210/96 80/155/79 81/153/78 93/211/97
f 93/211/97 81/153/78 79/111/75 92/145/77
f 94/212/96 83/213/79 84/156/78 96/214/97
f 96/214/97 84/156/78 82/133/75 95/147/77
f 97/215/96 86/161/79 87/159/78 99/216/97
f 99/216/97 87/159/78 85/150/75 98/149/77
f 100/217/96 89/164/79 90/162/78 102/218/97
f 102/218/97 90/162/78 88/141/75 101/152/77
f 24/32/32 32/31/31 120/144/76 119/110/74
f 28/45/40 20/58/48 117/109/70 118/86/72
f 24/32/32 119/110/74 115/113/73 4/71/61
f 180/180/69 77/114/70 117/109/70 183/108/69
f 32/46/31 28/45/40 118/86/72 120/85/71
f 80/155/79 91/210/96 126/219/76 125/220/74
f 51/154/73 80/221/79 125/220/74 121/222/73
f 91/200/71 103/199/72 124/223/72 126/224/71
f 103/185/72 76/106/70 123/105/70 124/223/72
f 185/225/69 131/117/70 123/105/70 184/104/69
f 177/175/69 74/118/70 131/117/70 185/225/69
f 125/220/74 126/219/76 129/146/76 128/132/74
f 121/222/73 125/220/74 128/132/74 127/131/73
f 126/224/71 124/223/72 132/116/72 129/124/71
f 124/223/72 123/105/70 131/117/70 132/116/72
f 83/213/79 94/212/96 138/226/76 137/227/74
f 52/157/73 83/158/79 137/227/74 133/228/73
f 94/203/71 106/202/72 136/229/72 138/230/71
f 106/188/72 73/102/70 135/101/70 136/229/72
f 187/231/69 143/121/70 135/101/70 186/100/69
f 174/170/69 71/122/70 143/121/70 187/231/69
f 137/227/74 138/226/76 141/148/76 140/136/74
f 133/228/73 137/227/74 140/136/74 139/135/73
f 138/230/71 136/229/72 144/120/72 141/126/71
f 136/229/72 135/101/70 143/121/70 144/120/72
f 86/161/79 97/215/96 150/232/76 149/233/74
f 53/160/73 86/234/79 149/233/74 145/235/73
f 97/205/71 109/192/72 148/236/72 150/237/71
f 189/238/69 155/92/70 147/97/70 188/96/69
f 109/192/72 70/191/70 147/97/70 148/236/72
f 171/165/69 68/239/70 155/92/70 189/238/69
f 149/233/74 150/232/76 153/151/76 152/140/74
f 145/235/73 149/233/74 152/140/74 151/139/73
f 150/237/71 148/236/72 156/91/72 153/128/71
f 148/236/72 147/97/70 155/92/70 156/91/72
f 89/164/79 100/217/96 162/143/76 161/90/74
f 100/208/71 112/207/72 160/95/72 162/130/71
f 112/196/72 67/195/70 159/82/70 160/95/72
f 54/163/73 89/240/79 161/90/74 157/89/73
f 166/62/52 40/52/44 159/82/70 190/81/69
f 16/241/98 166/62/52 190/81/69 158/242/99
f 55/166/99 171/165/69 189/238/69 154/243/99
f 154/243/99 189/238/69 188/96/69 146/244/99
f 58/171/99 174/170/69 187/231/69 142/245/99
f 142/245/99 187/231/69 186/100/69 134/246/99
f 61/176/99 177/175/69 185/225/69 130/247/99
f 130/247/99 185/225/69 184/104/69 122/248/99
f 64/181/99 180/180/69 183/108/69 116/249/99
f 78/187/89 181/183/83 182/107/83 76/106/86
f 77/114/93 180/180/80 181/183/80 78/187/90
f 75/190/89 178/178/83 179/103/83 73/102/86
f 74/118/93 177/175/80 178/178/80 75/190/90
f 72/194/89 175/173/83 176/99/83 70/98/86
f 71/122/93 174/170/80 175/173/80 72/194/90
f 69/198/89 172/168/83 173/84/83 67/83/86
f 68/239/93 171/165/80 172/168/80 69/198/90
f 116/249/99 183/108/69 170/70/60 11/69/59
f 122/248/99 184/104/69 182/107/69 65/184/99
f 134/246/99 186/100/69 179/103/69 62/179/99
f 146/244/99 188/96/69 176/99/69 59/174/99
f 158/242/99 190/81/69 173/84/69 56/169/99
f 22/250/47 169/68/58 170/70/60 20/58/48
f 21/251/46 168/65/55 169/68/58 22/250/47
f 19/11/11 167/10/10 168/64/54 21/252/45
f 18/253/100 165/61/51 166/62/52 16/241/98
f 17/254/101 164/59/50 165/61/51 18/253/100
f 15/8/8 163/7/7 164/59/49 17/254/102
f 154/243/99 146/244/99 218/244/103 219/243/103
f 134/246/99 62/179/99 208/179/103 216/246/103
f 2/1/1 15/8/8 197/8/104 192/1/1
f 56/169/85 57/167/84 203/167/105 202/169/105
f 62/179/85 63/177/84 209/177/105 208/179/105
f 11/69/59 13/67/57 195/67/106 193/69/107
f 122/248/99 65/184/99 211/184/103 214/248/103
f 13/67/57 14/66/56 196/66/108 195/67/106
f 116/249/99 11/69/59 193/69/107 213/249/103
f 14/63/53 12/9/9 194/9/109 196/63/110
f 58/171/99 142/245/99 217/245/103 204/171/103
f 142/245/99 134/246/99 216/246/103 217/245/103
f 60/172/82 58/171/81 204/171/111 206/172/111
f 15/8/8 17/254/102 199/254/112 197/8/104
f 66/182/82 64/181/81 210/181/111 212/182/111
f 17/254/101 18/253/100 200/253/113 199/254/114
f 18/253/100 16/241/98 198/241/115 200/253/113
f 59/174/85 60/172/84 206/172/105 205/174/105
f 65/184/85 66/182/84 212/182/105 211/184/105
f 16/241/98 158/242/99 220/242/103 198/241/115
f 61/176/99 130/247/99 215/247/103 207/176/103
f 130/247/99 122/248/99 214/248/103 215/247/103
f 158/242/99 56/169/99 202/169/103 220/242/103
f 57/167/82 55/166/81 201/166/111 203/167/111
f 146/244/99 59/174/99 205/174/103 218/244/103
f 63/177/82 61/176/81 207/176/111 209/177/111
f 64/181/99 116/249/99 213/249/103 210/181/103
f 55/166/99 154/243/99 219/243/103 201/166/103
f 12/9/9 1/16/16 191/16/16 194/9/109
