# Blender 4.1.1
# www.blender.org
mtllib Booth_Support_Metal.mtl
o Booth_Support_Metal
v -5.829615 0.017150 -3.871346
v -5.814367 0.160818 -3.871346
v -3.982286 0.017150 -3.871346
v -3.997535 0.160818 -3.871346
v -5.829615 0.160818 -3.871346
v -3.982286 0.160818 -3.871346
v -5.814367 0.419926 -3.871346
v -3.997535 0.419926 -3.871346
v -5.829615 0.017150 -3.816358
v -5.829615 0.160818 -3.816358
v -3.982286 0.017150 -3.816358
v -3.982286 0.160818 -3.816358
v -5.814367 0.160818 -3.818086
v -3.997535 0.160818 -3.818086
v -5.814367 0.419926 -3.818086
v -3.997535 0.419926 -3.818086
v -5.814367 1.383688 -3.871346
v -3.997535 1.383688 -3.871346
v -5.814367 1.383688 -3.818086
v -3.997535 1.383688 -3.818086
v -5.819422 0.017150 -3.009345
v -5.829615 0.017150 -3.020139
v -5.804156 0.160818 -3.034053
v -5.814367 0.160818 -3.044890
v -3.982286 0.017150 -3.020139
v -3.992479 0.017150 -3.009345
v -3.997535 0.160818 -3.044890
v -4.007745 0.160818 -3.034053
v -5.819405 0.160818 -3.009345
v -5.829615 0.160818 -3.020181
v -3.982286 0.160818 -3.020181
v -3.992496 0.160818 -3.009345
v -5.814367 0.419926 -3.044848
v -5.804174 0.419926 -3.034053
v -4.007727 0.419926 -3.034053
v -3.997535 0.419926 -3.044848
vn -0.0000 -0.0000 -1.0000
vn -1.0000 -0.0000 -0.0000
vn -0.0000 -1.0000 -0.0000
vn -0.0000 1.0000 -0.0000
vn -0.0000 -0.0000 1.0000
vn 1.0000 -0.0000 -0.0000
vn -0.7275 0.0001 0.6861
vn 0.7275 0.0001 0.6862
vn 0.7275 -0.0001 0.6861
vn -0.7275 -0.0001 0.6861
vt 0.375000 0.250000
vt 0.625000 0.250000
vt 0.625000 0.500000
vt 0.375000 0.500000
vt 0.375000 0.232511
vt 0.625000 0.232511
vt 0.125000 0.517489
vt 0.375000 0.517489
vt 0.375000 0.746890
vt 0.373621 0.750000
vt 0.126379 0.750000
vt 0.125000 0.746890
vt 0.629516 0.526329
vt 0.629516 0.736772
vt 0.625000 0.746878
vt 0.625000 0.517489
vt 0.869130 0.739722
vt 0.630870 0.739722
vt 0.630868 0.739722
vt 0.869132 0.739722
vt 0.629516 0.510278
vt 0.870484 0.510278
vt 0.875000 0.500000
vt 0.870484 0.526329
vt 0.875000 0.517489
vt 0.870484 0.736772
vt 0.870484 0.736784
vt 0.870484 0.526329
vt 0.629516 0.736772
vt 0.629516 0.736784
vt 0.873618 0.750000
vt 0.626382 0.750000
vt 0.870484 0.736772
vt 0.875000 0.746878
vt 0.125000 0.500000
vt 0.375000 0.751379
vt 0.625000 0.751382
vt 0.625000 0.998618
vt 0.375000 0.998621
vt 0.375000 0.000000
vt 0.625000 0.000000
vt 0.625000 0.003122
vt 0.375000 0.003110
s 1
f 1/1/1 5/2/1 6/3/1 3/4/1
f 9/5/2 10/6/2 5/2/2 1/1/2
f 9/7/3 11/8/3 25/9/3 26/10/3 21/11/3 22/12/3
f 14/13/4 27/14/4 31/15/4 12/16/4
f 23/17/5 28/18/5 35/19/5 34/20/5
f 14/13/6 4/21/6 8/21/6 16/13/6
f 2/22/4 4/21/4 6/3/4 5/23/4
f 13/24/4 2/22/4 5/23/4 10/25/4
f 13/24/2 24/26/2 33/27/2 15/28/2
f 27/29/6 14/13/6 16/13/6 36/30/6
f 28/18/4 23/17/4 29/31/4 32/32/4
f 4/21/1 2/22/1 7/22/1 8/21/1
f 24/33/4 13/24/4 10/25/4 30/34/4
f 2/22/2 13/24/2 15/28/2 7/22/2
f 8/21/1 7/22/1 17/22/1 18/21/1
f 4/21/4 14/13/4 12/16/4 6/3/4
f 11/8/6 12/16/6 31/15/6 25/9/6
f 16/13/4 15/28/4 33/27/4 34/20/4 35/19/4 36/30/4
f 1/35/3 3/4/3 11/8/3 9/7/3
f 3/4/6 6/3/6 12/16/6 11/8/6
f 26/36/5 32/37/5 29/38/5 21/39/5
f 18/21/4 17/22/4 19/28/4 20/13/4
f 7/22/2 15/28/2 19/28/2 17/22/2
f 15/28/5 16/13/5 20/13/5 19/28/5
f 16/13/6 8/21/6 18/21/6 20/13/6
f 21/40/7 29/41/7 30/42/7 22/43/7
f 32/37/8 26/36/8 25/9/8 31/15/8
f 29/31/4 23/17/4 24/33/4 30/34/4
f 28/18/4 32/32/4 31/15/4 27/14/4
f 35/19/9 28/18/9 27/29/9 36/30/9
f 23/17/10 34/20/10 33/27/10 24/26/10
f 22/43/2 30/42/2 10/6/2 9/5/2
