# Blender 4.1.1
# www.blender.org
mtllib Lamp__1_.002.mtl
o Lamp__1_.002
v -4.572426 2.046158 -6.114217
v -4.635678 2.236745 -6.114217
v -4.656433 2.236745 -6.164324
v -4.611707 2.046158 -6.209050
v -4.706541 2.046158 -5.980102
v -4.706541 2.236745 -6.043355
v -4.656433 2.236745 -6.064109
v -4.611707 2.046158 -6.019383
v -4.840655 2.046158 -6.114217
v -4.777403 2.236745 -6.114217
v -4.756648 2.236745 -6.064109
v -4.801374 2.046158 -6.019383
v -4.706541 2.046158 -6.248332
v -4.706541 2.236745 -6.185080
v -4.756648 2.236745 -6.164324
v -4.801374 2.046158 -6.209050
v -4.706541 2.236745 -6.099583
v -4.716888 2.236745 -6.103869
v -4.696193 2.236745 -6.103869
v -4.721175 2.236745 -6.114217
v -4.691906 2.236745 -6.114217
v -4.716888 2.236745 -6.124565
v -4.696193 2.236745 -6.124565
v -4.706541 2.236745 -6.128851
v -4.706541 2.046158 -6.234154
v -4.791349 2.046158 -6.199025
v -4.621732 2.046158 -6.199025
v -4.826478 2.046158 -6.114217
v -4.586604 2.046158 -6.114217
v -4.791349 2.046158 -6.029408
v -4.621732 2.046158 -6.029408
v -4.706541 2.046158 -5.994280
v -4.751101 2.220615 -6.158777
v -4.706541 2.220615 -6.177234
v -4.751101 2.220615 -6.069657
v -4.769558 2.220615 -6.114217
v -4.661981 2.220615 -6.069657
v -4.706541 2.220615 -6.051199
v -4.643523 2.220615 -6.114217
v -4.661981 2.220615 -6.158777
v -4.716888 4.501536 -6.124565
v -4.721175 4.501536 -6.114217
v -4.716888 4.501536 -6.103869
v -4.706541 4.501536 -6.099583
v -4.696193 4.501536 -6.103869
v -4.691906 4.501536 -6.114217
v -4.706541 4.501536 -6.128851
v -4.696193 4.501536 -6.124565
vn 0.8833 0.2931 -0.3659
vn 0.3659 0.2931 0.8833
vn -0.8833 0.2931 0.3659
vn -0.3659 0.2931 -0.8833
vn 0.3659 0.2931 -0.8833
vn 0.8833 0.2931 0.3659
vn -0.3659 0.2931 0.8833
vn -0.8833 0.2931 -0.3659
vn -0.0000 1.0000 -0.0000
vn -0.0000 -1.0000 -0.0000
vn 0.3664 -0.2886 0.8846
vn 0.8846 -0.2886 -0.3664
vn -0.3664 -0.2886 -0.8846
vn -0.3664 -0.2886 0.8846
vn -0.8846 -0.2886 -0.3664
vn 0.3664 -0.2886 -0.8846
vn 0.8846 -0.2886 0.3664
vn -0.8846 -0.2886 0.3664
vn -0.9239 -0.0000 -0.3827
vn -0.3827 -0.0000 0.9239
vn 0.9239 -0.0000 0.3827
vn -0.0000 1.0000 0.0001
vn 0.9239 -0.0000 -0.3827
vn 0.3827 -0.0000 0.9239
vn -0.9239 -0.0000 0.3827
vn -0.3827 -0.0000 -0.9239
vn 0.3827 -0.0000 -0.9239
vt 0.117939 0.109419
vt 0.033797 0.152154
vt 0.033770 0.135221
vt 0.117989 0.141467
vt 0.202207 0.186789
vt 0.117989 0.193035
vt 0.118015 0.176102
vt 0.202157 0.218837
vt 0.202157 0.109419
vt 0.118015 0.152154
vt 0.117989 0.135221
vt 0.202207 0.141467
vt 0.117989 0.186789
vt 0.033770 0.193035
vt 0.033797 0.176102
vt 0.117939 0.218837
vt 0.265550 0.084192
vt 0.230915 0.000000
vt 0.254862 0.000000
vt 0.220227 0.084192
vt 0.247530 0.291462
vt 0.212895 0.207270
vt 0.236842 0.207270
vt 0.202207 0.291462
vt 0.115182 0.218837
vt 0.132116 0.235771
vt 0.109178 0.245271
vt 0.105681 0.241774
vt 0.109178 0.250217
vt 0.091235 0.218837
vt 0.132116 0.259718
vt 0.100736 0.241774
vt 0.105681 0.253714
vt 0.074302 0.235771
vt 0.115182 0.276651
vt 0.097239 0.245271
vt 0.100736 0.253714
vt 0.074302 0.259718
vt 0.091235 0.276651
vt 0.097239 0.250217
vt 0.065818 0.109419
vt 0.033770 0.077371
vt 0.039554 0.074975
vt 0.068214 0.103635
vt 0.039554 0.034444
vt 0.111141 0.109419
vt 0.033770 0.032048
vt 0.108745 0.103635
vt 0.068214 0.005783
vt 0.143189 0.077371
vt 0.065818 0.000000
vt 0.137405 0.074975
vt 0.108745 0.005783
vt 0.143189 0.032048
vt 0.111141 0.000000
vt 0.137405 0.034444
vt 0.220227 0.000000
vt 0.143189 0.038278
vt 0.143212 0.023219
vt 0.220182 0.028660
vt 0.279201 0.178610
vt 0.202230 0.184051
vt 0.202207 0.168993
vt 0.279245 0.207270
vt 0.279245 0.109419
vt 0.202207 0.147697
vt 0.202230 0.132638
vt 0.279201 0.138079
vt 0.132116 0.255192
vt 0.132116 0.233896
vt 0.147174 0.218837
vt 0.168470 0.218837
vt 0.147174 0.270250
vt 0.183529 0.233896
vt 0.168470 0.270250
vt 0.183529 0.255192
vt 0.143189 0.059574
vt 0.220182 0.069192
vt 0.288061 0.284264
vt 0.257147 0.207270
vt 0.278444 0.207270
vt 0.247530 0.284264
vt 0.074302 0.295831
vt 0.043388 0.218837
vt 0.064684 0.218837
vt 0.033770 0.295831
vt 0.143212 0.074632
vt 0.220227 0.097852
vt 0.008443 1.000000
vt 0.003497 0.000005
vt 0.008443 0.000005
vt 0.003497 1.000000
vt 0.016885 1.000000
vt 0.011940 0.000005
vt 0.016885 0.000005
vt 0.011940 1.000000
vt 0.025328 1.000000
vt 0.020382 0.000005
vt 0.025328 0.000005
vt 0.020382 1.000000
vt 0.183529 0.227280
vt 0.191971 0.230777
vt 0.187026 0.230777
vt 0.195468 0.227280
vt 0.195468 0.222334
vt 0.183529 0.222334
vt 0.191971 0.218837
vt 0.187026 0.218837
vt 0.016885 0.000000
vt 0.016885 0.999995
vt 0.008443 0.000000
vt 0.008443 0.999995
vt 0.000000 0.000000
vt 0.000000 0.999995
vt 0.028825 1.000000
vt 0.025328 0.000000
vt 0.028825 0.000005
vt 0.025328 0.999995
vt 0.033770 1.000000
vt 0.033770 0.000005
s 1
usemtl Lamp
f 1/1/1 3/2/1 2/3/1
f 1/1/1 4/4/1 3/2/1
f 5/5/2 7/6/2 6/7/2
f 5/5/2 8/8/2 7/6/2
f 9/9/3 11/10/3 10/11/3
f 9/9/3 12/12/3 11/10/3
f 13/13/4 15/14/4 14/15/4
f 13/13/4 16/16/4 15/14/4
f 4/4/5 14/15/5 3/2/5
f 4/4/5 13/13/5 14/15/5
f 8/17/6 2/18/6 7/19/6
f 8/17/6 1/20/6 2/18/6
f 12/12/7 6/7/7 11/10/7
f 12/12/7 5/5/7 6/7/7
f 16/21/8 10/22/8 15/23/8
f 16/21/8 9/24/8 10/22/8
f 11/25/9 6/26/9 17/27/9
f 11/25/9 17/27/9 18/28/9
f 6/26/9 19/29/9 17/27/9
f 10/30/9 11/25/9 18/28/9
f 6/26/9 7/31/9 19/29/9
f 10/30/9 18/28/9 20/32/9
f 7/31/9 21/33/9 19/29/9
f 15/34/9 10/30/9 20/32/9
f 7/31/9 2/35/9 21/33/9
f 15/34/9 20/32/9 22/36/9
f 2/35/9 23/37/9 21/33/9
f 14/38/9 15/34/9 22/36/9
f 2/35/9 3/39/9 23/37/9
f 14/38/9 22/36/9 24/40/9
f 3/39/9 24/40/9 23/37/9
f 3/39/9 14/38/9 24/40/9
f 16/41/10 13/42/10 25/43/10
f 16/41/10 25/43/10 26/44/10
f 13/42/10 27/45/10 25/43/10
f 9/46/10 16/41/10 26/44/10
f 13/42/10 4/47/10 27/45/10
f 9/46/10 26/44/10 28/48/10
f 4/47/10 29/49/10 27/45/10
f 12/50/10 9/46/10 28/48/10
f 4/47/10 1/51/10 29/49/10
f 12/50/10 28/48/10 30/52/10
f 1/51/10 31/53/10 29/49/10
f 5/54/10 12/50/10 30/52/10
f 1/51/10 8/55/10 31/53/10
f 5/54/10 30/52/10 32/56/10
f 8/55/10 32/56/10 31/53/10
f 8/55/10 5/54/10 32/56/10
usemtl Lamp
f 26/57/11 34/58/11 33/59/11
f 26/57/11 25/60/11 34/58/11
f 30/61/12 36/62/12 35/63/12
f 30/61/12 28/64/12 36/62/12
f 31/65/13 38/66/13 37/67/13
f 31/65/13 32/68/13 38/66/13
f 34/69/10 40/70/10 39/71/10
f 34/69/10 39/71/10 37/72/10
f 33/73/10 34/69/10 37/72/10
f 33/73/10 37/72/10 38/74/10
f 36/75/10 33/73/10 38/74/10
f 36/75/10 38/74/10 35/76/10
f 25/60/14 40/77/14 34/58/14
f 25/60/14 27/78/14 40/77/14
f 29/79/15 37/80/15 39/81/15
f 29/79/15 31/82/15 37/80/15
f 32/68/16 35/63/16 38/66/16
f 32/68/16 30/61/16 35/63/16
f 28/83/17 33/84/17 36/85/17
f 28/83/17 26/86/17 33/84/17
f 27/78/18 39/87/18 40/77/18
f 27/78/18 29/88/18 39/87/18
usemtl Lamp
f 22/89/19 42/90/19 41/91/19
f 22/89/19 20/92/19 42/90/19
f 18/93/20 44/94/20 43/95/20
f 18/93/20 17/96/20 44/94/20
f 19/97/21 46/98/21 45/99/21
f 19/97/21 21/100/21 46/98/21
f 47/101/9 46/102/9 48/103/22
f 47/101/9 45/104/9 46/102/9
f 47/101/9 44/105/9 45/104/9
f 47/101/9 41/106/9 44/105/9
f 41/106/9 43/107/9 44/105/9
f 41/106/9 42/108/9 43/107/9
f 21/100/23 48/109/23 46/98/23
f 21/100/23 23/110/23 48/109/23
f 17/96/24 45/111/24 44/94/24
f 17/96/24 19/112/24 45/111/24
f 20/92/25 43/113/25 42/90/25
f 20/92/25 18/114/25 43/113/25
f 24/115/26 41/116/26 47/117/26
f 24/115/26 22/118/26 41/116/26
f 23/119/27 47/117/27 48/120/27
f 23/119/27 24/115/27 47/117/27
