# Blender 4.1.1
# www.blender.org
mtllib Wall_Window.001.mtl
o Wall_Window.001
v 3.417843 -0.032850 7.204366
v 3.417843 3.763157 7.204366
v 3.227843 -0.032850 7.204365
v 3.227844 3.763157 7.204366
v 3.417843 3.594064 7.204366
v 3.227843 3.594064 7.204366
v 1.617844 -0.032850 7.231494
v 1.617844 3.763157 7.204367
v 1.617844 3.594064 7.231495
v 3.417852 3.594064 7.119899
v 3.417853 -0.032850 7.119898
v 3.227854 -0.032850 7.119897
v 3.417851 3.763157 7.119899
v 3.227847 3.763157 7.119898
v 3.227849 3.594064 7.119898
v 1.617842 3.594064 7.119899
v 1.617842 3.763157 7.119899
v 1.677969 3.594064 7.204367
v 1.677969 -0.032850 7.204366
v 1.677969 3.763157 7.204367
v 1.677968 3.594064 7.119899
v 1.677968 3.763157 7.119899
v -0.130345 -0.032850 7.204366
v -0.130345 3.763157 7.204366
v 0.059655 -0.032850 7.204365
v 0.059654 3.763157 7.204366
v -0.130345 3.594064 7.204366
v 0.059655 3.594064 7.204366
v 1.669654 -0.032850 7.231494
v 1.669654 3.763157 7.204367
v 1.669654 3.594064 7.231495
v -0.130354 3.594064 7.119899
v -0.130355 -0.032850 7.119898
v 0.059644 -0.032850 7.119897
v -0.130353 3.763157 7.119899
v 0.059651 3.763157 7.119898
v 0.059649 3.594064 7.119898
v 1.669656 3.594064 7.119899
v 1.669656 3.763157 7.119899
v 1.609529 3.594064 7.204367
v 1.609529 -0.032850 7.204366
v 1.609529 3.763157 7.204367
v 1.609530 3.594064 7.119899
v 1.609530 3.763157 7.119899
vn -0.0000 1.0000 -0.0000
vn 1.0000 -0.0000 0.0001
vn -0.4113 -0.0000 -0.9115
vn -0.0000 -1.0000 -0.0000
vn -0.0000 -0.0000 -1.0000
vn -1.0000 -0.0000 -0.0000
vn -1.0000 -0.0000 -0.0001
vn -1.0000 -0.0000 0.0001
vn 0.4113 -0.0000 -0.9115
vn 1.0000 -0.0000 -0.0000
vn 1.0000 -0.0000 -0.0001
vt 0.000000 0.000000
vt 0.333333 0.000000
vt 0.333333 0.460417
vt 0.333333 0.920833
s 0
f 4/1/1 2/1/1 13/1/1 14/1/1
f 2/1/2 5/1/2 10/1/2 13/1/2
f 19/2/3 7/2/3 9/3/3 18/3/3
f 18/3/4 9/3/4 16/3/4 21/3/4
f 10/3/5 15/3/5 14/4/5 13/4/5
f 11/2/5 12/2/5 15/3/5 10/3/5
f 21/3/5 16/3/5 17/4/5 22/4/5
f 9/1/6 8/1/6 17/1/6 16/1/6
f 5/1/2 1/1/2 11/1/2 10/1/2
f 20/1/1 4/1/1 14/1/1 22/1/1
f 3/2/7 6/3/7 15/3/7 12/2/7
f 1/1/4 3/1/4 12/1/4 11/1/4
f 8/1/1 20/1/1 22/1/1 17/1/1
f 15/3/5 21/3/5 22/4/5 14/4/5
f 6/3/4 18/3/4 21/3/4 15/3/4
f 3/2/5 19/2/5 18/3/5 6/3/5
f 26/1/1 36/1/1 35/1/1 24/1/1
f 24/1/8 35/1/8 32/1/8 27/1/8
f 41/2/9 40/3/9 31/3/9 29/2/9
f 40/3/4 43/3/4 38/3/4 31/3/4
f 32/3/5 35/4/5 36/4/5 37/3/5
f 33/2/5 32/3/5 37/3/5 34/2/5
f 43/3/5 44/4/5 39/4/5 38/3/5
f 31/1/10 38/1/10 39/1/10 30/1/10
f 27/1/8 32/1/8 33/1/8 23/1/8
f 42/1/1 44/1/1 36/1/1 26/1/1
f 25/2/11 34/2/11 37/3/11 28/3/11
f 23/1/4 33/1/4 34/1/4 25/1/4
f 30/1/1 39/1/1 44/1/1 42/1/1
f 37/3/5 36/4/5 44/4/5 43/3/5
f 28/3/4 37/3/4 43/3/4 40/3/4
f 25/2/5 28/3/5 40/3/5 41/2/5
