# Blender 4.1.1
# www.blender.org
mtllib Wall_Window.mtl
o Wall_Window
v -5.881473 -0.032464 5.111009
v -5.881473 4.501536 5.111010
v -5.881473 1.478869 5.111009
v -5.881473 2.990203 5.111008
v -5.881473 3.036525 5.111009
v -5.881473 1.403302 5.111009
v -3.662710 -0.032464 8.512241
v -4.421430 -0.032465 7.996075
v -4.421431 4.472293 7.996076
v -3.662710 4.472293 8.512242
v -4.421431 1.478869 7.996075
v -3.662710 1.478869 8.512241
v -4.421431 2.990203 7.996075
v -3.662710 2.990203 8.512241
v -4.421431 3.065769 7.996075
v -3.662710 3.065769 8.512241
v -4.421431 1.403302 7.996075
v -3.662710 1.403302 8.512241
v -1.145021 -0.032850 8.511791
v -1.145022 4.471907 8.511791
v -1.145021 1.478483 8.511791
v -1.145021 2.989817 8.511790
v -1.145021 3.065384 8.511790
v -1.145021 1.402916 8.511791
v -1.145021 -0.032850 7.204366
v -1.145022 4.471907 7.204367
v -1.145021 1.478483 7.204366
v -1.145021 2.989817 7.204366
v -1.145021 3.065384 7.204366
v -1.145021 1.402916 7.204366
v 4.442893 -0.032850 7.204366
v 4.442892 4.471907 7.204366
v 4.442893 1.478483 7.204366
v 4.442893 2.989817 7.204366
v 4.442893 3.065384 7.204366
v 4.442893 1.402916 7.204366
v 3.909160 3.065384 7.204365
v -0.611290 3.065384 7.204366
v -0.611290 4.471907 7.204366
v 3.909160 4.471907 7.204365
v 3.909160 1.478483 7.204365
v -0.611290 1.478483 7.204366
v -0.611290 2.989817 7.204366
v 3.909160 2.989817 7.204365
v 3.909160 -0.032850 7.204365
v -0.611290 -0.032850 7.204366
v -0.611288 1.402916 7.204366
v 3.909161 1.402916 7.204366
v -5.881473 3.778165 5.111009
v -3.662710 3.763543 8.512241
v -4.421431 3.763543 7.996075
v -1.145021 3.763158 8.511790
v -1.145021 3.763158 7.204366
v 4.442893 3.763157 7.204366
v -0.611290 3.763158 7.204366
v 3.909160 3.763157 7.204365
v -1.785585 3.065769 8.512241
v -1.785586 4.472293 8.512241
v -1.785585 1.403302 8.512241
v -1.785585 1.478869 8.512241
v -1.785585 2.990203 8.512241
v -1.785585 -0.032464 8.512241
v -1.785585 3.763543 8.512241
v -1.910952 3.065769 8.512241
v -1.910952 1.403302 8.512241
v -1.910952 -0.032464 8.512241
v -1.910953 4.472293 8.512242
v -1.910952 1.478869 8.512241
v -1.910952 2.990203 8.512241
v -1.910952 3.763543 8.512241
v -3.662710 1.478869 8.637560
v -3.662710 2.990203 8.637560
v -1.145021 1.478483 8.637109
v -1.145021 2.989817 8.637109
v -1.785585 1.478869 8.637559
v -1.785585 2.990203 8.637559
v -1.910952 1.478869 8.637560
v -1.910952 2.990203 8.637560
v -5.999870 1.478869 5.170925
v -5.999869 2.990203 5.170925
v -4.539827 1.478869 8.055992
v -4.539827 2.990203 8.055992
v 3.417843 3.065384 7.204366
v -0.119976 3.065384 7.204366
v -0.119975 4.471907 7.204366
v 3.417844 4.471907 7.204366
v 3.417843 1.478483 7.204366
v -0.119976 1.478483 7.204366
v -0.119975 2.989817 7.204366
v 3.417843 2.989816 7.204366
v 3.417843 -0.032850 7.204366
v -0.119976 -0.032850 7.204366
v -0.119971 1.402916 7.204366
v 3.417849 1.402916 7.204366
v 3.417843 3.763157 7.204366
v -0.119976 3.763158 7.204366
vn 0.8923 -0.0000 -0.4515
vn -0.0000 -1.0000 -0.0000
vn 0.5625 -0.0000 -0.8268
vn -0.0007 -0.0000 -1.0000
vn -1.0000 -0.0000 -0.0000
vn -0.0000 -0.0000 -1.0000
vn 0.0006 1.0000 -0.0000
vn -0.0006 -1.0000 -0.0000
vn 1.0000 -0.0000 -0.0000
vn -0.0000 1.0000 -0.0000
vn -0.4515 -0.0000 -0.8923
vn 0.4515 -0.0000 0.8923
vt 0.666667 0.920833
vt 1.000000 0.920833
vt 1.000000 1.000000
vt 0.666667 1.000000
vt 0.666667 0.316667
vt 1.000000 0.316667
vt 1.000000 0.333333
vt 0.666667 0.333333
vt 1.000000 0.666667
vt 0.666667 0.666667
vt 1.000000 0.683333
vt 0.666667 0.683333
vt 0.666667 0.000000
vt 1.000000 0.000000
vt 0.333333 0.000000
vt 0.333333 0.316667
vt 0.333333 0.666667
vt 0.333333 0.683333
vt 0.333333 0.333333
vt 0.333333 0.920833
vt 0.333333 1.000000
vt 0.333333 0.920833
vt 0.333333 0.000000
vt 0.333333 0.920833
vt 0.333333 0.000000
vt 0.333333 0.316667
vt 0.000000 0.000000
s 0
f 51/1/1 49/2/1 2/3/1 9/4/1
f 17/5/1 6/6/1 3/7/1 11/8/1
f 4/9/2 13/10/2 82/10/2 80/9/2
f 13/10/1 4/9/1 5/11/1 15/12/1
f 8/13/1 1/14/1 6/6/1 17/5/1
f 7/15/3 8/13/3 17/5/3 18/16/3
f 14/17/3 13/10/3 15/12/3 16/18/3
f 12/19/3 11/8/3 13/10/3 14/17/3
f 18/16/3 17/5/3 11/8/3 12/19/3
f 50/20/3 51/1/3 9/4/3 10/21/3
f 63/22/4 58/21/4 20/21/4 52/22/4
f 59/16/4 60/19/4 21/19/4 24/16/4
f 69/17/5 68/19/5 77/19/5 78/17/5
f 61/17/4 57/18/4 23/18/4 22/17/4
f 62/15/4 59/16/4 24/16/4 19/15/4
f 52/22/5 20/21/5 26/21/5 53/20/5
f 21/19/5 22/17/5 28/17/5 27/19/5
f 19/15/5 24/16/5 30/16/5 25/15/5
f 24/16/5 21/19/5 27/19/5 30/16/5
f 22/17/5 23/18/5 29/18/5 28/17/5
f 37/18/6 35/18/6 34/17/6 44/17/6
f 41/19/6 33/19/6 36/16/6 48/16/6
f 48/16/6 36/16/6 31/15/6 45/23/6
f 44/17/6 34/17/6 33/19/6 41/19/6
f 56/24/6 54/24/6 35/18/6 37/18/6
f 53/20/6 55/20/6 38/18/6 29/18/6
f 95/22/6 56/24/6 37/18/6 83/18/6
f 28/17/6 43/17/6 42/19/6 27/19/6
f 90/17/6 44/17/6 41/19/6 87/19/6
f 30/16/6 47/16/6 46/23/6 25/15/6
f 94/16/6 48/16/6 45/23/6 91/23/6
f 27/19/6 42/19/6 47/16/6 30/16/6
f 87/19/6 41/19/6 48/16/6 94/16/6
f 29/18/6 38/18/6 43/17/6 28/17/6
f 83/18/6 37/18/6 44/17/6 90/17/6
f 86/21/6 40/21/6 56/24/6 95/22/6
f 26/21/6 39/21/6 55/20/6 53/20/6
f 40/21/6 32/21/6 54/24/6 56/24/6
f 23/18/5 52/22/5 53/20/5 29/18/5
f 57/18/4 63/22/4 52/22/4 23/18/4
f 16/18/3 15/12/3 51/1/3 50/20/3
f 15/12/1 5/11/1 49/2/1 51/1/1
f 64/18/6 70/22/6 63/22/6 57/18/6
f 66/25/6 65/26/6 59/16/6 62/15/6
f 69/17/6 64/18/6 57/18/6 61/17/6
f 68/19/6 69/17/6 61/17/6 60/19/6
f 65/26/6 68/19/6 60/19/6 59/16/6
f 70/22/6 67/21/6 58/21/6 63/22/6
f 50/20/6 10/21/6 67/21/6 70/22/6
f 18/16/6 12/19/6 68/19/6 65/26/6
f 21/19/7 60/19/7 75/19/7 73/19/7
f 14/17/6 16/18/6 64/18/6 69/17/6
f 7/15/6 18/16/6 65/26/6 66/25/6
f 16/18/6 50/20/6 70/22/6 64/18/6
f 75/19/4 76/17/4 74/17/4 73/19/4
f 71/19/6 72/17/6 78/17/6 77/19/6
f 22/17/5 21/19/5 73/19/5 74/17/5
f 14/17/2 69/17/2 78/17/2 72/17/2
f 61/17/8 22/17/8 74/17/8 76/17/8
f 12/19/9 14/17/9 72/17/9 71/19/9
f 60/19/9 61/17/9 76/17/9 75/19/9
f 68/19/10 12/19/10 71/19/10 77/19/10
f 81/8/1 79/7/1 80/9/1 82/10/1
f 13/10/11 11/8/11 81/8/11 82/10/11
f 11/8/10 3/7/10 79/7/10 81/8/10
f 3/27/12 4/27/12 80/27/12 79/27/12
f 39/21/6 85/21/6 96/24/6 55/20/6
f 85/21/6 86/21/6 95/22/6 96/24/6
f 38/18/6 84/18/6 89/17/6 43/17/6
f 42/19/6 88/19/6 93/16/6 47/16/6
f 47/16/6 93/16/6 92/23/6 46/23/6
f 43/17/6 89/17/6 88/19/6 42/19/6
f 55/20/6 96/24/6 84/18/6 38/18/6
